<svg width="200" height="60" viewBox="0 0 200 60" fill="none" xmlns="http://www.w3.org/2000/svg">
  <g id="omega-logo">
    <!-- Omega symbol with fabric waves -->
    <path d="M30 15 C30 8, 22 5, 15 5 C8 5, 0 8, 0 15 C0 22, 5 27, 10 30 L10 35 L15 35 L15 28 C12 26, 8 22, 8 15 C8 11, 10 9, 15 9 C20 9, 22 11, 22 15 C22 22, 18 26, 15 28 L15 35 L20 35 L20 30 C25 27, 30 22, 30 15 Z" fill="#2C3E50"/>

    <!-- Flowing fabric waves through omega -->
    <path d="M5 14 Q15 11, 25 14" stroke="#2C3E50" stroke-width="1.5" fill="none" opacity="0.7"/>
    <path d="M5 17 Q15 14, 25 17" stroke="#2C3E50" stroke-width="1.5" fill="none" opacity="0.5"/>

    <!-- Text: OMEGA -->
    <text x="40" y="24" font-family="Georgia, serif" font-size="22" font-weight="600" fill="#2C3E50">OMEGA</text>

    <!-- Text: FABRIC -->
    <text x="40" y="42" font-family="Georgia, serif" font-size="18" font-weight="400" fill="#2C3E50" letter-spacing="2">FABRIC</text>
  </g>
</svg>